<mxfile host="Electron" modified="2023-08-03T07:31:01.867Z" agent="Mozilla/5.0 (X11; Linux x86_64) AppleWebKit/537.36 (KHTML, like Gecko) draw.io/21.2.1 Chrome/112.0.5615.87 Electron/24.1.2 Safari/537.36" etag="9hJ72zP63-czfWR-lndi" version="21.2.1" type="device">
  <diagram name="Page-1" id="Vn31Phi38d548Jd6JGEV">
    <mxGraphModel dx="658" dy="451" grid="1" gridSize="10" guides="1" tooltips="1" connect="1" arrows="1" fold="1" page="1" pageScale="1" pageWidth="850" pageHeight="1100" math="0" shadow="0">
      <root>
        <mxCell id="0" />
        <mxCell id="1" parent="0" />
        <mxCell id="HSjvIxSosh0ikxAGgUQO-1" value="" style="rounded=1;whiteSpace=wrap;html=1;fillColor=#dae8fc;strokeColor=#6c8ebf;" parent="1" vertex="1">
          <mxGeometry x="50" y="30" width="190" height="460" as="geometry" />
        </mxCell>
        <mxCell id="HSjvIxSosh0ikxAGgUQO-3" value="" style="rounded=1;whiteSpace=wrap;html=1;fillColor=#fff2cc;strokeColor=#d6b656;" parent="1" vertex="1">
          <mxGeometry x="280" y="30" width="190" height="460" as="geometry" />
        </mxCell>
        <mxCell id="HSjvIxSosh0ikxAGgUQO-4" value="&lt;font style=&quot;font-size: 20px;&quot;&gt;Master Node&lt;/font&gt;" style="text;html=1;strokeColor=none;fillColor=none;align=center;verticalAlign=middle;whiteSpace=wrap;rounded=0;" parent="1" vertex="1">
          <mxGeometry x="82.5" width="125" height="30" as="geometry" />
        </mxCell>
        <mxCell id="HSjvIxSosh0ikxAGgUQO-5" value="&lt;font style=&quot;font-size: 20px;&quot;&gt;Server Nodes&lt;/font&gt;" style="text;html=1;strokeColor=none;fillColor=none;align=center;verticalAlign=middle;whiteSpace=wrap;rounded=0;" parent="1" vertex="1">
          <mxGeometry x="312.5" width="125" height="30" as="geometry" />
        </mxCell>
        <mxCell id="dOM9HWIBabcOR5BkwlwP-8" style="edgeStyle=orthogonalEdgeStyle;rounded=0;orthogonalLoop=1;jettySize=auto;html=1;entryX=0.5;entryY=0;entryDx=0;entryDy=0;" parent="1" source="HSjvIxSosh0ikxAGgUQO-7" target="dOM9HWIBabcOR5BkwlwP-1" edge="1">
          <mxGeometry relative="1" as="geometry" />
        </mxCell>
        <mxCell id="HSjvIxSosh0ikxAGgUQO-7" value="&lt;font style=&quot;font-size: 12px;&quot;&gt;①&amp;nbsp;Read layer configuration&lt;/font&gt;" style="rounded=0;whiteSpace=wrap;html=1;align=left;" parent="1" vertex="1">
          <mxGeometry x="65" y="50" width="160" height="30" as="geometry" />
        </mxCell>
        <mxCell id="HSjvIxSosh0ikxAGgUQO-9" value="&lt;font style=&quot;font-size: 12px;&quot;&gt;⑩&amp;nbsp;Layer confirmation&lt;/font&gt;" style="rounded=0;whiteSpace=wrap;html=1;align=left;" parent="1" vertex="1">
          <mxGeometry x="60" y="440" width="160" height="30" as="geometry" />
        </mxCell>
        <mxCell id="HSjvIxSosh0ikxAGgUQO-10" value="" style="endArrow=classic;html=1;rounded=0;strokeWidth=5;fillColor=#f8cecc;strokeColor=#FF3333;" parent="1" edge="1">
          <mxGeometry width="50" height="50" relative="1" as="geometry">
            <mxPoint x="30" y="60" as="sourcePoint" />
            <mxPoint x="30" y="470" as="targetPoint" />
          </mxGeometry>
        </mxCell>
        <mxCell id="HSjvIxSosh0ikxAGgUQO-11" value="Time Series" style="text;html=1;strokeColor=none;fillColor=none;align=center;verticalAlign=middle;whiteSpace=wrap;rounded=0;" parent="1" vertex="1">
          <mxGeometry y="20" width="60" height="30" as="geometry" />
        </mxCell>
        <mxCell id="dOM9HWIBabcOR5BkwlwP-10" style="edgeStyle=orthogonalEdgeStyle;rounded=0;orthogonalLoop=1;jettySize=auto;html=1;entryX=0.5;entryY=0;entryDx=0;entryDy=0;" parent="1" source="dOM9HWIBabcOR5BkwlwP-1" target="dOM9HWIBabcOR5BkwlwP-2" edge="1">
          <mxGeometry relative="1" as="geometry" />
        </mxCell>
        <mxCell id="dOM9HWIBabcOR5BkwlwP-1" value="&lt;font style=&quot;font-size: 12px;&quot;&gt;②&amp;nbsp;Read model configuration&lt;/font&gt;" style="rounded=0;whiteSpace=wrap;html=1;align=left;" parent="1" vertex="1">
          <mxGeometry x="65" y="100" width="160" height="30" as="geometry" />
        </mxCell>
        <mxCell id="dOM9HWIBabcOR5BkwlwP-11" style="edgeStyle=orthogonalEdgeStyle;rounded=0;orthogonalLoop=1;jettySize=auto;html=1;" parent="1" source="dOM9HWIBabcOR5BkwlwP-2" target="dOM9HWIBabcOR5BkwlwP-3" edge="1">
          <mxGeometry relative="1" as="geometry" />
        </mxCell>
        <mxCell id="dOM9HWIBabcOR5BkwlwP-2" value="&lt;font style=&quot;font-size: 12px;&quot;&gt;③ Create&amp;nbsp; layer distribution configuration list&lt;/font&gt;" style="rounded=0;whiteSpace=wrap;html=1;align=left;" parent="1" vertex="1">
          <mxGeometry x="65" y="150" width="160" height="30" as="geometry" />
        </mxCell>
        <mxCell id="dOM9HWIBabcOR5BkwlwP-12" style="edgeStyle=orthogonalEdgeStyle;rounded=0;orthogonalLoop=1;jettySize=auto;html=1;entryX=0;entryY=0.5;entryDx=0;entryDy=0;" parent="1" source="dOM9HWIBabcOR5BkwlwP-3" target="dOM9HWIBabcOR5BkwlwP-4" edge="1">
          <mxGeometry relative="1" as="geometry" />
        </mxCell>
        <mxCell id="4NC7xafMKUF_hPEPK5Oz-4" style="edgeStyle=orthogonalEdgeStyle;rounded=0;orthogonalLoop=1;jettySize=auto;html=1;entryX=0.5;entryY=0;entryDx=0;entryDy=0;" parent="1" source="dOM9HWIBabcOR5BkwlwP-3" target="4NC7xafMKUF_hPEPK5Oz-1" edge="1">
          <mxGeometry relative="1" as="geometry" />
        </mxCell>
        <mxCell id="dOM9HWIBabcOR5BkwlwP-3" value="&lt;font style=&quot;font-size: 12px;&quot;&gt;④&amp;nbsp;Distribute layer conf to each server node base on server node list and layer distribution configuration list&lt;/font&gt;" style="rounded=0;whiteSpace=wrap;html=1;align=left;" parent="1" vertex="1">
          <mxGeometry x="65" y="200" width="160" height="70" as="geometry" />
        </mxCell>
        <mxCell id="dOM9HWIBabcOR5BkwlwP-13" style="edgeStyle=orthogonalEdgeStyle;rounded=0;orthogonalLoop=1;jettySize=auto;html=1;" parent="1" source="dOM9HWIBabcOR5BkwlwP-4" target="dOM9HWIBabcOR5BkwlwP-5" edge="1">
          <mxGeometry relative="1" as="geometry" />
        </mxCell>
        <mxCell id="dOM9HWIBabcOR5BkwlwP-4" value="&lt;font style=&quot;font-size: 12px;&quot;&gt;⑤&amp;nbsp;Wait layer distribution signal&lt;/font&gt;" style="rounded=0;whiteSpace=wrap;html=1;align=left;" parent="1" vertex="1">
          <mxGeometry x="295" y="50" width="160" height="30" as="geometry" />
        </mxCell>
        <mxCell id="4NC7xafMKUF_hPEPK5Oz-5" style="edgeStyle=orthogonalEdgeStyle;rounded=0;orthogonalLoop=1;jettySize=auto;html=1;entryX=0.5;entryY=0;entryDx=0;entryDy=0;" parent="1" source="dOM9HWIBabcOR5BkwlwP-5" target="4NC7xafMKUF_hPEPK5Oz-3" edge="1">
          <mxGeometry relative="1" as="geometry" />
        </mxCell>
        <mxCell id="dOM9HWIBabcOR5BkwlwP-5" value="&lt;font style=&quot;font-size: 12px;&quot;&gt;⑥&amp;nbsp;Create layer instance&lt;/font&gt;" style="rounded=0;whiteSpace=wrap;html=1;align=left;" parent="1" vertex="1">
          <mxGeometry x="295" y="290" width="160" height="30" as="geometry" />
        </mxCell>
        <mxCell id="dOM9HWIBabcOR5BkwlwP-15" style="edgeStyle=orthogonalEdgeStyle;rounded=0;orthogonalLoop=1;jettySize=auto;html=1;entryX=0.524;entryY=0.038;entryDx=0;entryDy=0;entryPerimeter=0;" parent="1" source="dOM9HWIBabcOR5BkwlwP-6" target="HSjvIxSosh0ikxAGgUQO-9" edge="1">
          <mxGeometry relative="1" as="geometry" />
        </mxCell>
        <mxCell id="dOM9HWIBabcOR5BkwlwP-6" value="&lt;font style=&quot;font-size: 12px;&quot;&gt;⑧&amp;nbsp;Send confirm massage&lt;/font&gt;" style="rounded=0;whiteSpace=wrap;html=1;align=left;" parent="1" vertex="1">
          <mxGeometry x="295" y="400" width="160" height="30" as="geometry" />
        </mxCell>
        <mxCell id="4NC7xafMKUF_hPEPK5Oz-1" value="&lt;font style=&quot;font-size: 12px;&quot;&gt;⑨ Create publishers subscribers base on&amp;nbsp;&lt;/font&gt;layer distribution configuration list" style="rounded=0;whiteSpace=wrap;html=1;align=left;" parent="1" vertex="1">
          <mxGeometry x="65" y="290" width="160" height="50" as="geometry" />
        </mxCell>
        <mxCell id="4NC7xafMKUF_hPEPK5Oz-6" style="edgeStyle=orthogonalEdgeStyle;rounded=0;orthogonalLoop=1;jettySize=auto;html=1;entryX=0.5;entryY=0;entryDx=0;entryDy=0;" parent="1" source="4NC7xafMKUF_hPEPK5Oz-3" target="dOM9HWIBabcOR5BkwlwP-6" edge="1">
          <mxGeometry relative="1" as="geometry" />
        </mxCell>
        <mxCell id="4NC7xafMKUF_hPEPK5Oz-3" value="&lt;font style=&quot;font-size: 12px;&quot;&gt;⑦ Create publishers and subscribers&lt;/font&gt;" style="rounded=0;whiteSpace=wrap;html=1;align=left;" parent="1" vertex="1">
          <mxGeometry x="295" y="340" width="160" height="40" as="geometry" />
        </mxCell>
      </root>
    </mxGraphModel>
  </diagram>
</mxfile>
